<svg width="320" height="192" viewBox="0 0 320 192" fill="none" xmlns="http://www.w3.org/2000/svg">
<path d="M3.83699 107.821C6.56331 106.289 11.4162 108.452 9.017 129.357C4.38225 124.763 -3.1424 114.023 3.83699 107.821ZM3.83699 107.821C1.29245 81.7851 17.0325 45.1632 100.349 106.959M88.3531 72.2131C87.5352 88.581 94.8963 109.831 114.253 114.138C106.529 112.128 90.1525 107.131 86.4447 103.226L85.6268 105.236L83.991 105.81L85.0815 109.543C84.3545 110.022 83.0095 111.094 83.4457 111.553C83.9559 112.091 103.085 128.97 120.284 126.198M123.795 125.337C122.638 125.725 121.466 126.008 120.284 126.198M120.284 126.198C138.517 142.279 155.966 190.234 107.71 180.183M107.71 180.183C106.983 172.335 101.548 157.958 85.6268 163.241C83.7183 168.889 85.4632 180.183 107.71 180.183ZM107.71 180.183C123.011 193.613 149.968 194.254 172.051 183.679M186.228 109.543C181.866 109.543 144.07 123.259 162.509 141.418C196.043 174.44 172.96 177.632 172.051 183.679M186.228 109.543C186.87 109.425 187.601 109.278 188.409 109.105M186.228 109.543C189.816 114.033 192.696 118.316 194.952 122.399M172.051 183.679C179.493 180.115 187.152 175.067 192.816 168.412M134.701 89.1553L146.696 96.9085C146.878 97.6742 147.732 98.7463 149.695 96.9085C151.658 95.0707 156.693 89.8253 158.965 87.4324C159.419 86.858 161.037 85.8817 163.872 86.5709C166.708 87.2601 171.96 92.0268 174.232 94.3241C174.596 95.0898 175.814 96.1619 177.776 94.3241C179.739 92.4863 182.593 90.1125 183.774 89.1553C184.138 88.2938 185.356 86.9729 187.319 88.581C189.282 90.189 195.043 95.1856 197.679 97.4828C197.86 97.8657 198.606 98.2868 200.132 96.9085C201.659 95.5302 206.766 91.1654 209.129 89.1553C210.311 88.3895 213.055 87.3175 214.582 89.1553C215.73 90.5378 219.625 93.1985 222.761 95.2063M222.761 95.2063C223.794 95.8675 224.744 96.4579 225.487 96.9085C225.487 95.6281 225.436 94.1836 225.327 92.6026M222.761 95.2063L221.943 96.9085C210.697 103.351 196.075 107.458 188.409 109.105M210.092 46.0834C215.406 50.965 230.667 58.9479 249.206 51.8265C247.379 58.6225 239.119 71.5253 220.701 68.7687M210.092 46.0834C214.871 53.2072 218.306 61.1376 220.701 68.7687M210.092 46.0834C209.572 45.3076 209.035 44.5414 208.483 43.7861M220.701 68.7687C223.51 77.7201 224.889 86.2598 225.327 92.6026M208.483 43.7861C204.692 38.6064 200.133 33.9438 194.68 30.259M208.483 43.7861C209.224 38.6079 210.465 30.441 211.695 23.3981M194.68 30.259C180.625 20.7632 160.628 17.7616 132.52 29.1398L131.614 30.0027M194.68 30.259C201.95 22.1332 216.109 6.7431 214.582 10.189C213.865 11.8072 212.784 17.162 211.695 23.3981M116.707 17.655C117.07 17.9422 118.615 17.8847 121.887 15.3578M117.525 27.1311C118.888 27.4183 122.487 27.0737 125.976 23.3981M119.433 39.1917C120.887 39.1917 125.431 38.1005 131.974 33.7357M131.614 30.0027C125.336 17.8508 116.184 6.02353 111.799 1C113.246 5.38176 114.668 23.6273 115.475 36.6073M131.614 30.0027C132.753 32.2064 133.797 34.4208 134.701 36.6073C132.301 44.1559 121.16 44.5384 115.889 43.7861C115.78 41.7275 115.641 39.2789 115.475 36.6073M109.618 45.5091C107.144 47.4236 103.532 48.6364 99.2584 49.3269M99.2584 49.3269C85.0729 51.6194 63.6097 48.1572 52.3656 45.5091C55.6372 57.2824 86.4447 79.3934 101.712 70.4916M99.2584 49.3269C101.89 46.0442 108.818 38.9045 115.475 36.6073M207.221 18.8036C207.568 20.048 208.949 22.7089 211.695 23.3981M202.313 25.6954L206.675 30.8642M212.673 68.7687L207.493 71.3531C206.627 71.5445 205.414 72.272 207.493 73.6503C209.573 75.0286 211.813 76.3304 212.673 76.809M152.694 69.0558V74.2246M152.694 69.0558L153.184 69.6301M152.694 69.0558L152.394 69.343M152.694 74.2246L151.493 73.076V70.2044L152.094 69.6301M152.694 74.2246L153.184 73.7939M199.314 157.787C203.858 155.107 213.928 150.895 217.853 155.49C209.347 169.732 197.617 170.039 192.816 168.412M199.314 157.787C197.761 161.702 195.515 165.239 192.816 168.412M199.314 157.787C203.084 148.283 202.772 136.55 194.952 122.399M188.409 109.105C189.772 108.802 207.221 117.586 217.853 115.862L217.036 119.021L217.853 120.744V122.754V123.902C212.401 124.527 200.187 125.101 194.952 122.399M171.233 138.26C172.051 137.399 180.23 128.785 184.32 127.061M179.958 144.291C181.684 142.28 186.283 137.858 190.863 136.25M185.683 156.351C186.44 155.202 188.925 152.618 192.816 151.469M163.872 173.58C160.601 169.656 154.712 160.256 157.329 154.054C159.946 147.851 168.234 161.041 172.051 168.412M225.327 92.6026C251.66 82.265 266.655 13.6348 305.914 48.0935M305.914 48.0935C308.367 45.7962 314.42 45.4516 319 62.4512C310.276 59.6945 306.641 51.7308 305.914 48.0935ZM153.184 69.6301L153.674 70.2044V73.3631L153.184 73.7939M153.184 69.6301V73.7939M152.094 69.6301V73.7939L152.394 69.343M152.094 69.6301L152.394 69.343M152.394 73.7939L151.766 71.3531V70.2044V73.076M290.646 46.0834C293.736 48.6678 297.898 56.6507 289.828 67.9072C281.758 53.6643 287.011 47.4234 290.646 46.0834ZM266.382 60.4412C265.201 64.0785 265.673 73.1908 277.015 80.542C274.615 61.2452 268.927 59.1011 266.382 60.4412ZM254.114 76.5219C257.112 75.099 263.765 76.8438 266.382 95.2063C256.785 88.7894 254.204 80.0763 254.114 76.5219ZM233.666 95.7613C237.029 95.3784 243.208 99.0923 241.027 117.011C232.739 109.43 232.666 99.6857 233.666 95.7613ZM76.0846 100.069C73.8127 99.7814 69.4324 102.538 70.0867 115.862C79.2472 109.66 77.9022 102.749 76.0846 100.069ZM49.9119 107.821C53.7288 104.938 60.2174 96.9972 55.6372 88.2952C52.2747 89.7302 46.4222 95.6442 49.9119 107.821ZM34.3719 102.366C37.5526 99.8772 42.0056 92.3154 34.3719 81.9778C31.4638 84.275 27.3925 91.5688 34.3719 102.366ZM11.4708 90.3053C14.4697 89.8258 21.0129 92.1406 23.194 105.236C9.2352 96.7351 9.56236 91.7402 11.4708 90.3053Z" stroke="black"/>
</svg>
