<svg width="557" height="394" viewBox="0 0 557 394" fill="none" xmlns="http://www.w3.org/2000/svg">
<path d="M270.5 0H510.5L556.5 393.5H0L270.5 0Z" fill="#C4C4C4"/>
<rect x="230" y="169" width="202" height="63" fill="white"/>
<path d="M313.792 209H322.09V207.578H318.436C317.77 207.578 316.96 207.65 316.276 207.704C319.372 204.77 321.442 202.088 321.442 199.46C321.442 197.102 319.966 195.554 317.608 195.554C315.934 195.554 314.8 196.328 313.72 197.498L314.674 198.434C315.394 197.57 316.33 196.904 317.41 196.904C319.048 196.904 319.84 198.002 319.84 199.514C319.84 201.782 317.932 204.41 313.792 208.028V209ZM328.186 204.968V201.404H332.218V204.968H328.186ZM340.084 204.968H333.568V201.404H338.842V200.144H333.568V197.408H339.256V196.112H328.528C328.816 195.5 329.104 194.852 329.356 194.222L328.006 193.898C327.16 196.31 325.648 198.632 323.956 200.108C324.298 200.288 324.856 200.738 325.108 200.954C326.08 200.018 327.034 198.794 327.844 197.408H332.218V200.144H326.854V204.968H323.902V206.264H332.218V210.386H333.568V206.264H340.084V204.968Z" fill="black"/>
</svg>
