<svg width="514" height="395" viewBox="0 0 514 395" fill="none" xmlns="http://www.w3.org/2000/svg">
<path d="M0 0H513.5L245.5 395H0V0Z" fill="#C4C4C4"/>
<rect x="69" y="170" width="202" height="63" fill="white"/>
<path d="M153.584 210H160.82V208.632H158.174V196.788H156.914C156.194 197.22 155.348 197.526 154.178 197.742V198.786H156.518V208.632H153.584V210ZM167.186 205.968V202.404H171.218V205.968H167.186ZM179.084 205.968H172.568V202.404H177.842V201.144H172.568V198.408H178.256V197.112H167.528C167.816 196.5 168.104 195.852 168.356 195.222L167.006 194.898C166.16 197.31 164.648 199.632 162.956 201.108C163.298 201.288 163.856 201.738 164.108 201.954C165.08 201.018 166.034 199.794 166.844 198.408H171.218V201.144H165.854V205.968H162.902V207.264H171.218V211.386H172.568V207.264H179.084V205.968Z" fill="black"/>
</svg>
