<svg width="445" height="399" viewBox="0 0 445 399" fill="none" xmlns="http://www.w3.org/2000/svg">
<path d="M0.5 0H444.5V398.5H55L0.5 0Z" fill="#C4C4C4"/>
<rect x="159" y="171" width="202" height="63" fill="white"/>
<path d="M246.752 211.234C249.092 211.234 250.982 209.83 250.982 207.472C250.982 205.672 249.74 204.484 248.192 204.124V204.052C249.578 203.53 250.532 202.468 250.532 200.866C250.532 198.778 248.912 197.554 246.698 197.554C245.168 197.554 243.998 198.22 243.008 199.138L243.89 200.182C244.628 199.426 245.564 198.904 246.626 198.904C247.994 198.904 248.858 199.732 248.858 200.992C248.858 202.414 247.922 203.512 245.204 203.512V204.772C248.246 204.772 249.308 205.834 249.308 207.4C249.308 208.93 248.192 209.866 246.626 209.866C245.132 209.866 244.124 209.164 243.35 208.354L242.522 209.434C243.386 210.37 244.682 211.234 246.752 211.234ZM257.186 206.968V203.404H261.218V206.968H257.186ZM269.084 206.968H262.568V203.404H267.842V202.144H262.568V199.408H268.256V198.112H257.528C257.816 197.5 258.104 196.852 258.356 196.222L257.006 195.898C256.16 198.31 254.648 200.632 252.956 202.108C253.298 202.288 253.856 202.738 254.108 202.954C255.08 202.018 256.034 200.794 256.844 199.408H261.218V202.144H255.854V206.968H252.902V208.264H261.218V212.386H262.568V208.264H269.084V206.968Z" fill="black"/>
</svg>
