<svg width="203" height="226" viewBox="0 0 203 226" fill="none" xmlns="http://www.w3.org/2000/svg">
<path d="M41.483 45.9362L41.012 45.0684C37.017 28.0025 39.1325 23.3744 35.8409 9.20118C37.2512 5.72993 40.1658 9.54829 53.7048 29.4489H54.4109M41.483 45.9362C43.4418 42.4652 48.7696 34.3085 54.4109 29.4489M41.483 45.9362C25.1242 59.126 10.9253 54.3406 2.69851 52.6051C1.75831 52.798 0.253977 53.9935 1.75831 57.2332C3.63872 61.2827 12.7613 74.2991 27.7092 74.8776M41.483 45.9362C34.652 55.5825 30.3391 65.751 27.7092 74.8776M54.4109 29.4489C60.5213 24.8368 60.2862 22.1178 73.4491 21.655C104.006 19.6302 112.703 28.8863 114.113 28.3078H115.053M115.053 28.3078C119.049 19.5338 127.934 1.81223 131.507 1.11802C131.977 0.82877 133.382 0.891756 133.152 3.43205C132.716 8.25882 131.675 12.8369 130.401 36.9855M115.053 28.3078L110.822 36.9855C114.583 42.3077 119.911 43.6383 122.105 43.6383H128.921L130.097 43.0597C130.199 40.9073 130.301 38.8858 130.401 36.9855M130.401 36.9855C133.982 38.4317 141.802 42.8862 144.435 49.1341L145.14 50.3208M136.913 47.1093C138.976 48.2473 141.577 49.4648 145.14 50.3208M145.14 50.3208C153.35 52.2932 166.666 52.3463 190.27 45.0845C191.053 45.7595 192.411 48.3005 190.27 52.0266C185.021 61.1586 172.943 72.8633 157.363 75.5187M142.554 75.1669C147.744 76.2977 152.709 76.3118 157.363 75.5187M157.363 75.5187C156.422 88.4725 155.858 103.398 140.439 121.447C140.227 121.629 139.991 121.826 139.734 122.035M129.391 128.096C128.814 128.257 128.261 128.359 127.746 128.389L129.391 128.096ZM129.391 128.096C134.327 146.323 132.682 151.24 142.319 161.943L137.383 165.125C132.447 159.629 122.34 146.612 122.34 142.563C110.587 151.53 103.536 186.529 112.233 192.604L113.408 193.471C120.93 196.942 117.169 198.099 135.973 198.678M129.391 128.096C132.878 127.126 137.267 124.041 139.734 122.035M135.973 198.678C134.327 191.157 137.383 187.108 139.734 182.191C142.084 177.273 155.952 178.199 153.132 191.157C150.484 203.322 141.691 201.824 136.864 199.202M135.973 198.678C136.251 198.855 136.549 199.031 136.864 199.202M136.864 199.202C132.336 203.463 119.66 211.926 105.181 211.694C90.7019 211.463 76.7399 204.463 71.5687 198.678M71.5687 198.678C62.6368 168.306 82.3811 164.257 86.8471 150.373C89.4797 146.439 87.944 138.706 86.8471 135.332C79.7015 126.307 67.7295 120.772 62.6368 119.133M71.5687 198.678C64.4093 196.871 57.1422 189.726 52.6371 179.587M62.6368 119.133C61.9155 118.887 61.2105 118.647 60.5213 118.412M62.6368 119.133C58.586 124.159 55.4984 129.273 53.2347 134.362M60.5213 118.412C57.6223 120.003 51.3543 123.472 49.0038 123.472H46.8883C43.8587 121.517 42.7065 118.392 41.012 111.483M60.5213 118.412C51.8171 115.449 45.6327 113.368 41.012 111.483M41.012 111.483C40.6912 111.352 40.3779 111.222 40.0718 111.093M34.4306 110.456L40.0718 111.093M34.4306 110.456L41.012 129.546C41.4038 130.511 42.6574 132.555 44.5378 133.017C46.7316 133.114 51.2133 133.365 51.5893 133.596C51.9654 133.827 52.8429 134.203 53.2347 134.362M34.4306 110.456C20.4058 97.6322 -5.52835 110.456 6.45928 156.158C8.65304 164.739 16.1903 186.414 28.7892 204.463M40.0718 111.093C33.6466 108.381 30.4025 105.984 27.379 101.778L26.4388 100.338M53.2347 134.362C49.0887 143.681 47.7065 152.915 48.233 161.364M106.121 99.4641C106.2 99.8498 105.698 100.853 103.066 101.778C99.7749 102.935 96.7192 101.489 94.8388 101.2C93.3345 100.968 89.9811 99.1749 88.4924 98.3071C87.7873 97.7286 85.4368 96.803 81.6759 97.7286C76.9749 98.8856 75.0945 102.067 72.2739 102.067C70.0174 102.067 66.4759 100.235 64.9873 99.4641C64.2038 99.1749 62.2137 98.6542 60.5213 98.8856C58.4058 99.1749 54.1749 102.646 52.2945 103.514C50.7902 104.208 48.0636 103.803 46.8883 103.514C37.8623 96.3402 34.8223 95.8967 34.4306 96.5716C28.7795 100.365 27.994 100.166 26.4388 100.338M26.4388 100.338C25.8593 100.402 25.173 100.518 24.0883 100.91C23.7862 95.7466 24.4755 86.0998 27.7092 74.8776M48.233 161.364L42.4222 156.158C42.1022 161.364 43.6973 173.339 52.6371 179.587M48.233 161.364C48.6491 168.044 50.258 174.233 52.6371 179.587M80.2655 191.447C78.0717 190.675 74.3422 185.835 76.9748 172.645C78.7768 174.863 82.757 180.629 84.2614 185.951M56.0552 168.017C56.5789 167.824 58.8636 168.48 63.8119 172.645M58.8758 148.926L68.2778 157.026M61.2263 135.332C64.4387 137.356 71.7096 143.199 75.0943 150.373M94.8388 72.8528V78.3487M94.8388 72.8528L94.1335 74.8776M94.8388 72.8528L95.3089 73.8652M94.8388 78.3487L94.1335 76.9024M94.8388 78.3487L95.7789 76.9024M94.1335 76.9024V74.8776M94.1335 76.9024H95.7789M94.1335 74.8776H95.7789M95.7789 74.8776V76.9024M95.7789 74.8776L95.3089 73.8652M37.7211 78.6379C37.7211 79.4093 39.1783 81.0098 45.0077 81.2412M57.9356 89.6295C57.9356 90.0923 57.9356 90.0152 57.9356 89.9188M64.7521 90.7865V90.4973M28.7892 204.463C27.6139 208.995 28.9772 219.446 43.8325 225C40.3121 206.025 32.3368 203.402 28.7892 204.463ZM139.734 122.035C153.602 112.583 185.004 98.3071 199.672 116.819C202.022 129.546 208.745 134.117 181.103 185.951M181.103 185.951C182.278 192.025 181.479 204.752 168.88 207.066C172.829 186.471 178.674 184.408 181.103 185.951ZM144.435 128.096C147.49 128.387 152.144 134.29 146.315 155.579C140.862 145.398 142.789 133.21 144.435 128.389M95.3089 73.8652L95.2594 76.9452L94.3052 76.1781L94.6233 75.411V75.0274M28.7892 194.339C28.7892 191.447 32.456 186.819 47.1232 191.447C42.7121 197.926 33.0626 196.075 28.7892 194.339ZM18.4469 170.91C20.1706 168.403 26.2036 164.315 36.5459 168.017C27.2757 176.81 20.6173 173.609 18.4469 170.91ZM11.8655 145.455C15.9397 142.852 25.5925 139.902 31.6098 148.926C20.1393 153.554 13.6675 148.541 11.8655 145.455ZM19.6222 114.795C21.581 114.987 25.6866 115.489 26.4388 115.952C27.379 116.53 30.1993 124.051 32.315 133.017C21.5966 127.464 19.3871 118.555 19.6222 114.795ZM163.004 174.67C167.626 169.753 178.47 160.612 184.863 163.389C183.845 167.149 178.047 174.67 163.004 174.67ZM176.167 144.298C177.577 137.176 182.513 123.156 190.975 124.051C191.539 131.456 181.338 140.635 176.167 144.298ZM163.944 125.786C166.529 129.546 169.538 140.075 160.888 152.108C157.691 135.573 161.593 127.67 163.944 125.786Z" stroke="black"/>
</svg>
